<?xml version="1.0" encoding='ISO-8859-1' standalone="yes" ?>
<!DOCTYPE svg PUBLIC "-//W3C//DTD SVG 20000802//EN"
                     "http://www.w3.org/TR/2000/CR-SVG-20000802/DTD/svg-20000802.dtd">
<svg width="150mm" height="50mm" viewBox="0 0 360 120" >
  <title>Development</title>
  <style type="text/css"><![CDATA[
    .legend {
      font-family: Helvetica;
      font-size: 8;
      text-anchor: middle;
      fill: black;
    }
  ]]></style>

  <g fill="none" stroke="black" text-anchor="middle" >
    <defs>
        <marker id="triangle" viewBox="0 0 10 10" refX="0" refY="5"
            markerUnits="strokeWidth" markerWidth="7" markerHeight="6" orient="auto" fill="black">
          <path d="M 0 0 L 10 5 L 0 10 z"/>
        </marker>
    </defs>

    <g transform="translate(20,0)">
        <text class="legend" x="70" y="10">Java</text>

        <rect x="40" y="20" width="60" height="20" rx="3" ry="3" fill="white"/>
        <text class="legend" x="70" y="30">constructor</text>

        <path d="M 65 40 l -25 33" marker-end="url(#triangle)"/>
        <path d="M 70 40 l   0 33" marker-end="url(#triangle)"/>
        <path d="M 75 40 l  25 33" marker-end="url(#triangle)"/>

        <rect x="20" y="80" width="30" height="15" rx="3" ry="3" fill="white"/>
        <text class="legend" x="35" y="90">arg 1</text>
        <rect x="55" y="80" width="30" height="15" rx="3" ry="3" fill="white"/>
        <text class="legend" x="70" y="90">arg 2</text>
        <rect x="90" y="80" width="30" height="15" rx="3" ry="3" fill="white"/>
        <text class="legend" x="105" y="90">arg 3</text>

        <path d="M 10,40 l -2 2 v 35 l 2 2"/>

        <g transform="translate(0, 60)  rotate(90)">
            <text class="legend">arg list</text>
        </g>
    </g>
    <g transform="translate(200,0)">
        <text class="legend" x="70" y="10">Mork</text>

        <rect x="40" y="20" width="60" height="20" rx="3" ry="3" fill="white"/>
        <text class="legend" x="70" y="30">constructor</text>

        <path d="M  35 80 l  25 -35" marker-end="url(#triangle)"/>
        <path d="M  70 80 l   0 -34" marker-end="url(#triangle)"/>
        <path d="M 105 80 l -25 -35" marker-end="url(#triangle)"/>

        <rect x="20" y="80" width="30" height="15" rx="3" ry="3" fill="white"/>
        <text class="legend" x="35" y="90">arg 1</text>
        <rect x="55" y="80" width="30" height="15" rx="3" ry="3" fill="white"/>
        <text class="legend" x="70" y="90">arg 2</text>
        <rect x="90" y="80" width="30" height="15" rx="3" ry="3" fill="white"/>
        <text class="legend" x="105" y="90">arg 3</text>

        <path d="M 10,40 l -2 2 v 35 l 2 2"/>

        <g transform="translate(0, 60)  rotate(90)">
            <text class="legend">visibility</text>
        </g>
    </g>
  </g>
</svg>
